<?xml version="1.0" encoding="UTF-8"?>
<svg id="Layer_1" data-name="Layer 1" xmlns="http://www.w3.org/2000/svg" viewBox="0 0 124.04 124.04">
  <defs>
    <style>
      .cls-1 {
        fill: #f6eee4;
      }
    </style>
  </defs>
  <path class="cls-1" d="M62.02,0C27.82,0,0,27.82,0,62.02s27.82,62.02,62.02,62.02,62.02-27.82,62.02-62.02S96.22,0,62.02,0ZM62.02,114.04c-28.68,0-52.02-23.34-52.02-52.02S33.34,10,62.02,10s52.02,23.34,52.02,52.02-23.34,52.02-52.02,52.02Z"/>
  <path class="cls-1" d="M59.72,36.12c-1.95-1.95-5.12-1.95-7.07,0-1.95,1.95-1.95,5.12,0,7.07l18.83,18.83-18.83,18.83c-1.95,1.95-1.95,5.12,0,7.07.98.98,2.26,1.46,3.54,1.46s2.56-.49,3.54-1.46l22.36-22.36c1.95-1.95,1.95-5.12,0-7.07l-22.36-22.36Z"/>
</svg>