<?xml version="1.0" encoding="UTF-8"?>
<svg id="Layer_1" data-name="Layer 1" xmlns="http://www.w3.org/2000/svg" viewBox="0 0 119.47 179.6">
  <defs>
    <style>
      .cls-1 {
        fill: #210e0b;
      }
    </style>
  </defs>
  <path class="cls-1" d="M53.27,43.66c-15.95,0-28.87,3.39-28.87,7.57s12.93,7.57,28.87,7.57,28.87-3.39,28.87-7.57-12.93-7.57-28.87-7.57ZM94.24,52.99c-4.11,0-7.44,3.33-7.44,7.44s3.33,7.44,7.44,7.44,7.44-3.33,7.44-7.44-3.33-7.44-7.44-7.44ZM59.74,0C26.74,0,0,26.74,0,59.74c0,43.13,59.74,119.86,59.74,119.86,0,0,59.74-81.16,59.74-119.86C119.47,26.74,92.73,0,59.74,0ZM94.24,72.53c-3.44,0-6.54-1.44-8.74-3.75-5.47,12.37-17.84,21.01-32.23,21.01-19.46,0-35.23-15.77-35.23-35.23,0-17.99,60.21-19.34,69.3-4.07,1.96-1.36,4.33-2.16,6.89-2.16,6.68,0,12.1,5.42,12.1,12.1s-5.42,12.1-12.1,12.1Z"/>
</svg>