<?xml version="1.0" encoding="UTF-8"?>
<svg id="Layer_1" data-name="Layer 1" xmlns="http://www.w3.org/2000/svg" viewBox="0 0 170.1 75.96">
  <defs>
    <style>
      .cls-1 {
        fill: #694733;
      }
    </style>
  </defs>
  <path class="cls-1" d="M138.66,60.18c0-.25.01-.5.07-.75-.49-.51-.8-1.18-.85-1.89-.27-3.88,1.63-7.57,4.93-10.38-1.24-1.98-2.89-3.85-4.91-5.47-.02-.02-.05-.03-.07-.05-1.35,3.97-4.46,7.83-8.91,10.58-1.53.94-3.15,1.69-4.8,2.25.06.41.04.82-.07,1.21.48.52.76,1.2.79,1.91.06,1.57-.25,3.1-.84,4.54,3.32,2.23,7.09,3.49,10.58,3.49,2.31,0,4.41-.56,6.14-1.6-.7-.78-1.3-1.63-1.76-2.55-.21-.41-.3-.86-.31-1.3Z"/>
  <path class="cls-1" d="M105.93,40.41c.2-.62.44-1.24.72-1.85-.43-.07-.86-.17-1.29-.27-.87-.21-1.74-.48-2.59-.82.04.17.09.34.12.52.26,1.58.12,3.19-.34,4.76-.18.59-.4,1.18-.67,1.75-.3.64-.66,1.26-1.08,1.86-.17.24-.35.48-.54.72,1.58-.59,3.29-1.03,5.1-1.28-.02-.15-.04-.31-.05-.46,0,0,0,0,0,0-.07-.99-.03-2.01.15-3.03.11-.63.28-1.27.48-1.9Z"/>
  <path class="cls-1" d="M44.76,60.13c.54-1.53,1.43-2.89,2.59-4.05-.16.01-.32.02-.49.02-.15,0-.3.02-.45.02-4.25,0-8.89-1.76-12.72-4.83-.26-.21-.5-.43-.75-.65-2.22-1.93-4.02-4.2-5.25-6.62-.28.21-.56.41-.82.63-.93.78-1.7,1.63-2.35,2.52,2.25,1,4.11,2.41,5.45,4.14,1.09,1.41,1.83,3.01,2.13,4.78.42,2.51-.15,5.1-1.53,7.47,2.27.92,4.88,1.45,7.69,1.45.67,0,1.34-.03,2.01-.09,1.37-.12,2.68-.36,3.92-.69,0-.01,0-.03,0-.04-.04-.72.18-1.42.6-1.98-.25-.66-.27-1.39-.03-2.07Z"/>
  <path class="cls-1" d="M92.16,52.78c-1.04.4-2.13.72-3.25.98-.44.1-.88.19-1.32.27-1.3.22-2.61.33-3.9.33-.5,0-.99-.02-1.47-.05-.55-.03-1.08-.09-1.61-.17-5.39-.74-9.74-3.43-11.72-7.38-.32-.65-.4-1.37-.23-2.05-.49-.51-.8-1.18-.85-1.89-.07-1.03.03-2.05.25-3.04,1.28-5.79,7.25-10.7,15.16-12.01,1.3-.22,2.61-.33,3.9-.33,1.49,0,2.92.15,4.28.42-.92-1.56-1.6-3.17-2-4.78-1.65.4-3.41.62-5.25.62-.61,0-1.22-.02-1.83-.07-1.62-.12-3.16-.41-4.62-.82,0,.03,0,.06,0,.09-.28,2.36-1.32,4.73-3.07,6.85-2.54,3.09-6.36,5.47-10.73,6.68-2.07.57-4.16.87-6.22.87-.55,0-1.09-.03-1.62-.07,2.21,4.03,2.79,8.4,1.35,12.05-.27.67-.76,1.21-1.37,1.54-.03.43-.16.84-.36,1.21.72-.13,1.46-.22,2.23-.26.44-.03.89-.04,1.35-.04,1.86,0,3.76.23,5.63.7,7.84,1.94,13.37,7.29,14.2,13.12.1.7.11,1.41.07,2.13,1.4.31,2.89.49,4.45.49,1.31,0,2.65-.12,3.97-.35,1.54-.27,3-.69,4.36-1.22-1.2-1.51-2-3.25-2.27-5.15,0-.02,0-.04-.01-.05-.1-.77-.1-1.53-.04-2.28.18-2.26,1.09-4.41,2.57-6.31Z"/>
  <path class="cls-1" d="M100.13,15.09s.09.03.14.04c.1.03.2.05.29.08.15.05.3.1.45.15.09.03.19.07.28.1.16.06.32.13.47.21.08.04.17.07.25.11.2.1.41.21.6.33.03.02.07.04.1.06.23.14.46.3.68.46.06.05.12.1.19.15.16.12.31.25.46.39.08.07.15.15.23.22.13.13.26.26.38.4.08.09.15.18.23.27.12.14.23.29.34.44.07.1.14.2.21.31.11.16.21.33.3.51.06.11.12.22.18.33.1.2.19.41.29.62.04.1.09.2.13.31.13.33.25.67.35,1.03,1.75,6.13.64,5.61,6.64,8.1.17.07.3.14.42.22.03.02.06.04.09.06.07.05.13.11.19.16,0,0,0,0,0,0,.3-.2.6-.42.91-.61,1.08-.67,2.21-1.23,3.35-1.7.07-4.07-2.37-8.82-6.74-12.31-.41-.33-.82-.63-1.24-.92-.14-.09-.28-.18-.42-.27-.28-.19-.57-.37-.86-.54-.17-.1-.34-.19-.5-.28-.26-.14-.53-.29-.8-.42-.18-.09-.36-.17-.53-.25-.26-.12-.52-.23-.78-.33-.18-.07-.36-.14-.54-.2-.26-.1-.53-.18-.79-.26-.17-.05-.35-.11-.52-.16-.28-.08-.55-.14-.83-.2-.16-.03-.31-.07-.47-.1-.32-.06-.64-.1-.96-.14-.1-.01-.21-.03-.32-.04-.4-.04-.79-.06-1.18-.06.11.42.14.85.07,1.28-.15.84-.4,1.65-.74,2.42Z"/>
  <path class="cls-1" d="M96.12,19.99c-.57.43-1.18.83-1.83,1.2-.64.36-1.32.68-2.03.96.61,2.55,2.07,5.19,4.25,7.5,1.65.9,3.04,2.04,4.12,3.37.2.13.4.26.61.38.17.1.35.19.52.28.27.14.53.29.8.42.19.09.37.17.56.25.09.04.17.07.26.11.17.07.34.15.51.22.19.07.38.14.57.21.25.09.51.18.76.25.19.06.39.11.58.16.19.05.37.09.56.13.06.01.13.03.19.05.19.04.38.08.57.11.25.04.49.08.74.11.13.02.27.04.4.05,0,0,0,0,0,0,1.11-1.59,2.52-3.08,4.18-4.43,0,0,0,0,0,0-.06,0-.12-.02-.19-.03-.06-.01-.12-.02-.19-.03-.09-.02-.18-.04-.27-.07-.07-.02-.14-.03-.22-.05-.17-.05-.34-.11-.52-.18-4.58-1.77-5.99-5.85-6.87-9.6-.05-.22-.11-.43-.18-.62-.02-.06-.05-.12-.07-.18-.05-.13-.09-.26-.15-.37-.03-.07-.07-.13-.1-.19-.05-.1-.1-.2-.16-.3-.04-.06-.08-.12-.12-.18-.06-.09-.11-.17-.17-.25-.04-.06-.09-.11-.13-.17-.06-.07-.12-.14-.19-.21-.05-.05-.1-.1-.15-.14-.07-.06-.13-.12-.2-.18-.05-.04-.11-.08-.16-.12-.07-.05-.14-.1-.22-.15-.06-.04-.11-.07-.17-.11-.08-.04-.15-.09-.23-.13-.06-.03-.12-.06-.18-.09-.08-.04-.17-.07-.25-.1-.06-.02-.12-.05-.18-.07-.09-.03-.18-.06-.27-.09-.06-.02-.11-.04-.17-.05-.1-.03-.2-.05-.3-.07-.05-.01-.1-.02-.15-.03-.12-.02-.25-.04-.38-.06-.03,0-.06-.01-.09-.02-.16-.02-.32-.04-.48-.05-.03,0-.06,0-.09,0-.13-.01-.26-.02-.39-.03-.04,0-.08,0-.12,0,0,0,0,0,0,0-.73.96-1.62,1.83-2.64,2.6Z"/>
  <path class="cls-1" d="M46.24,26.97s.05.01.08.02c.06.02.12.03.19.03.02,0,.03,0,.05,0,.01,0,.02,0,.04,0,.08,0,.17-.02.25-.05.01,0,.03,0,.04-.01.1-.04.2-.1.3-.18.03-.02.06-.05.08-.08.08-.07.16-.16.24-.25.03-.04.06-.07.09-.12.11-.15.21-.31.32-.51.09-.17.19-.34.3-.52.03-.05.07-.11.1-.16.08-.12.16-.25.25-.37.04-.06.09-.12.13-.18.09-.13.19-.25.29-.37.04-.05.09-.11.13-.16.15-.18.3-.35.46-.52.01-.01.03-.03.04-.04.15-.16.3-.31.46-.46.06-.05.11-.1.17-.15.13-.11.26-.22.39-.33.07-.05.13-.11.2-.16.14-.11.29-.21.44-.31.06-.04.12-.08.18-.12.21-.14.43-.27.66-.39.03-.02.07-.03.1-.05.2-.1.4-.2.6-.29.08-.03.16-.06.24-.1.17-.07.34-.13.52-.19.09-.03.18-.06.27-.08.19-.05.38-.1.58-.14.07-.02.15-.04.22-.05.27-.05.55-.09.84-.11.05,0,.11,0,.16,0,.19-.01.37-.02.56-.02.05,0,.1,0,.15,0,.11,0,.21,0,.32.01.2.01.41.03.62.05.11.01.23.03.35.05.22.03.44.08.67.13.11.02.21.04.31.07.33.09.67.19,1.02.31.37.14.72.26,1.04.39.11.04.21.08.32.12.64.25,1.18.46,1.65.64.13.05.26.1.37.14.09.03.16.06.24.09.03.01.07.02.1.04.08.03.16.06.24.08.08.03.16.05.24.07.09.03.19.06.28.08.07.02.14.03.21.04.09.02.18.04.26.05.07,0,.13,0,.2.01.08,0,.16.02.24.02,0,0,0,0,0,0,.08,0,.15-.01.23-.02.07,0,.14,0,.21-.02.08-.01.16-.04.24-.05.07-.02.14-.03.22-.05.08-.02.16-.06.24-.09.08-.03.16-.05.25-.09.08-.03.17-.08.25-.12.1-.04.19-.08.29-.14.09-.05.2-.11.3-.16.11-.06.21-.11.32-.17.14-.08.3-.17.45-.26.09-.05.17-.1.26-.15.12-.07.25-.15.38-.23.42-.26.88-.54,1.42-.87.17-.1.32-.17.46-.23.03-.01.06-.02.09-.03.13-.04.25-.07.36-.07,0,0,.02,0,.02,0,.01,0,.02,0,.03,0,.09,0,.17.02.24.05.01,0,.02,0,.03.01.07.04.13.1.17.17,0,.02.02.03.02.05.04.08.06.16.06.26,0,0,0,0,0,.01,0,.1-.02.21-.05.33,0,.03-.01.05-.02.08-.04.12-.1.25-.18.39-.01.02-.03.05-.05.07-.08.13-.17.25-.28.39-.02.02-.04.05-.06.07-.13.15-.28.29-.45.44-.04.03-.08.07-.12.1-.18.15-.38.31-.61.46-.24.16-.48.3-.72.43-.08.04-.16.08-.24.12-.16.08-.32.16-.49.23-.09.04-.18.08-.28.11-.15.06-.3.12-.45.17-.09.03-.19.06-.28.09-.15.05-.3.09-.45.13-.09.02-.18.05-.27.07-.16.04-.33.07-.49.09-.07.01-.15.03-.22.04-.24.03-.47.06-.71.07-.03,0-.05,0-.08,0-.19.01-.38.02-.56.02-.02,0-.04,0-.06,0-.25,0-.49-.01-.74-.03-.02,0-.05,0-.07,0-.19-.02-.38-.04-.57-.07-.08,0-.15-.02-.23-.03-.09-.01-.17-.03-.25-.04-.18-.03-.36-.06-.54-.1-.1-.02-.2-.05-.31-.07-.16-.04-.32-.08-.48-.12-.1-.03-.21-.06-.31-.09-.16-.04-.31-.09-.47-.14-.1-.03-.2-.06-.31-.1-.16-.05-.31-.11-.47-.16-.1-.03-.19-.07-.29-.1-.17-.06-.34-.13-.51-.19-.08-.03-.15-.06-.23-.09-.24-.1-.48-.19-.72-.29-.2-.08-.39-.15-.58-.22-.1-.03-.2-.05-.3-.08-.09-.02-.18-.05-.26-.07-.11-.02-.21-.04-.32-.05-.07-.01-.14-.03-.21-.03-.09,0-.17,0-.26-.01-.08,0-.16-.01-.24-.01,0,0,0,0,0,0-.26,0-.5.03-.74.07-.04,0-.08.01-.11.02-.22.05-.44.11-.64.19-.04.02-.08.03-.12.05-.2.09-.4.19-.59.3-.03.02-.06.04-.08.05-.18.12-.36.24-.53.38-.02.01-.03.03-.05.04-.18.15-.34.3-.51.47-.03.03-.07.06-.1.1-.16.16-.31.33-.46.5-.03.04-.07.08-.1.12-.15.18-.29.36-.43.54-.02.03-.05.06-.07.1-.13.17-.25.34-.38.51-.03.04-.05.08-.08.11-.12.17-.24.34-.36.51-.16.24-.33.47-.49.69-.02.02-.03.04-.05.06-.14.19-.28.38-.42.56,0,0,0,0,0,0-.13.17-.27.33-.4.48-.02.02-.04.04-.05.06-.13.14-.26.27-.4.39-.02.02-.05.04-.07.07-.07.06-.15.11-.22.16,0,0,0,0,0,0,.67.43,1.32.88,1.95,1.39,1.28,1.02,2.41,2.14,3.39,3.33.13.03.25.07.38.1.11.02.21.05.32.07.32.06.64.1.97.14.16.02.31.05.47.07.1.01.2.01.31.02.42.03.84.05,1.27.06.08,0,.16.01.23.01.06,0,.13,0,.19,0,.24,0,.49-.01.74-.03.18,0,.36-.02.54-.03.26-.02.52-.05.79-.08.17-.02.34-.04.51-.06.29-.04.58-.1.88-.15.15-.03.29-.05.44-.08.44-.09.88-.2,1.33-.32.98-.27,1.92-.61,2.8-1,1.33-.58,2.55-1.29,3.62-2.08.72-.53,1.38-1.1,1.96-1.7.29-.3.57-.61.83-.92.42-.51.78-1.04,1.09-1.58.14-.23.27-.47.38-.7.45-.9.77-1.83.91-2.77.05-.34.08-.68.08-1.03-3.11-1.37-5.6-3.38-7.2-5.78-.58-.88-1.06-1.81-1.38-2.78,0,0,0,0,0,0-.07-.01-.13-.03-.19-.04-.06-.01-.13-.02-.2-.03-.32-.05-.65-.1-.99-.13-.13-.01-.25-.02-.38-.03-.29-.02-.59-.04-.89-.05-.12,0-.25,0-.37-.01-.06,0-.12,0-.18,0-.2,0-.41.01-.61.02-.19,0-.39,0-.58.02-.27.02-.55.05-.83.08-.19.02-.37.03-.56.06-.31.04-.62.1-.94.16-.16.03-.31.05-.47.08-.47.1-.95.21-1.42.34-.7.2-1.39.42-2.04.68s-1.29.54-1.89.86c-5.24,2.71-8.4,7.34-7.64,11.65.08.05.16.09.24.12Z"/>
  <path class="cls-1" d="M70.02,14.21s.02.04.03.06c.09.14.2.26.3.4,0,0,0,0,0,.01.12.17.23.33.37.5.49.59,1.05,1.14,1.68,1.66.39.32.82.62,1.26.91,0,0,.01,0,.02.01,1.15.75,2.46,1.38,3.88,1.86,1.54.52,3.22.88,4.99,1.02.52.04,1.02.06,1.53.06.02,0,.05,0,.08,0,.31,0,.6-.02.91-.03.12,0,.25,0,.37-.01.45-.03.89-.07,1.33-.13.09-.01.17-.03.26-.04.34-.05.69-.1,1.02-.17.15-.03.3-.07.44-.1.16-.04.31-.07.47-.11,0,0,0,0,0,0,.11-.03.22-.05.32-.08.16-.04.32-.1.48-.14.24-.07.47-.14.7-.22.16-.06.32-.12.48-.18.22-.08.43-.17.64-.26.13-.06.25-.12.38-.18.03-.01.05-.03.08-.04.2-.1.4-.19.59-.29.15-.08.29-.16.44-.25.18-.11.36-.22.54-.33.14-.09.27-.18.41-.27.17-.12.33-.24.49-.36.06-.05.12-.1.18-.15,0,0,0,0,0,0,.06-.05.13-.1.19-.15,0,0,0,0,0,0,.15-.13.29-.26.43-.39.11-.11.22-.21.33-.32.14-.14.26-.29.39-.43.1-.11.19-.22.28-.34.12-.15.23-.31.34-.47.08-.12.16-.23.23-.35.02-.03.03-.06.05-.09,0,0,0,0,.01,0,0,0,0-.01,0-.02.08-.13.14-.28.21-.41.06-.11.13-.23.18-.34.09-.2.16-.4.24-.6.04-.1.08-.2.11-.3.1-.31.18-.62.23-.94-.05-.06-.1-.12-.16-.17-.02-.02-.04-.03-.06-.04-.04-.03-.08-.06-.12-.09-.01,0-.03-.01-.04-.02,0,0,0,0-.01,0,0,0-.02,0-.03-.01-.04-.02-.08-.04-.13-.05-.03,0-.07,0-.1-.01-.05,0-.09-.01-.14-.01-.05,0-.11.01-.16.02-.04,0-.08,0-.12.02-.06.02-.13.05-.19.07-.04.02-.09.03-.13.05-.08.04-.16.09-.24.15-.04.03-.08.05-.12.08-.13.09-.26.2-.4.33-.17.16-.36.31-.56.47-.06.05-.13.1-.2.14-.14.11-.29.21-.44.31-.08.05-.17.11-.25.16-.15.09-.3.18-.45.27-.09.05-.18.1-.28.15-.16.09-.33.17-.51.25-.09.04-.18.09-.27.13-.13.06-.26.11-.4.16-.09.03-.18.07-.26.1-.06.02-.11.04-.17.06-.28.09-.57.17-.87.24-.08.02-.16.03-.25.05-.22.04-.44.08-.67.11-.11.01-.22.02-.34.03-.03,0-.05,0-.08,0,0,0,0,0,0,0-.06,0-.11,0-.17.01-.12,0-.24.02-.36.02-.06,0-.12.01-.19.01-.09,0-.18,0-.27-.01-.09,0-.19,0-.28-.01-.2-.01-.4-.04-.6-.06-.08-.01-.15-.02-.22-.03-.28-.05-.55-.1-.83-.18-.05-.01-.1-.03-.15-.05-.23-.07-.46-.14-.69-.23-.09-.04-.19-.08-.28-.12-.19-.08-.38-.17-.58-.27-.1-.05-.2-.1-.3-.16-.2-.11-.39-.23-.59-.35-.09-.06-.18-.11-.27-.17-.11-.07-.21-.15-.32-.23-.18-.13-.35-.26-.53-.41-.28-.23-.53-.45-.77-.66-.06-.05-.11-.1-.17-.15-.22-.19-.44-.38-.63-.55-.16-.14-.3-.26-.44-.39,0,0-.02-.01-.02-.02-.07-.06-.13-.12-.2-.17-.17-.15-.33-.29-.48-.42-.02-.02-.04-.03-.06-.05-.13-.11-.25-.21-.37-.3-.04-.03-.07-.06-.11-.08-.13-.1-.26-.19-.38-.28-.02-.01-.04-.03-.06-.04-.11-.07-.21-.13-.31-.19-.03-.02-.06-.03-.09-.05-.12-.06-.24-.11-.35-.16-.02,0-.05-.01-.07-.02-.1-.04-.21-.06-.32-.09-.03,0-.06-.01-.09-.02-.13-.02-.26-.04-.4-.05-.03,0-.06,0-.09,0-.06,0-.12,0-.19,0s-.13,0-.2,0c-.04,0-.07,0-.11,0-.17,0-.34.02-.53.05-.04,0-.08.01-.11.02-.16.02-.34.05-.52.08-.05,0-.11.02-.16.03-.22.04-.46.08-.72.13-.03,0-.07.01-.1.02-.24.05-.5.1-.78.16-.09.02-.18.04-.27.06-.29.06-.59.12-.92.19-.18.04-.34.05-.48.05-.02,0-.04,0-.06,0-.01,0-.02,0-.04,0-.16,0-.29-.03-.4-.07-.02,0-.03-.01-.05-.02-.11-.05-.19-.11-.25-.18,0,0,0-.02-.01-.02-.05-.08-.08-.17-.08-.27,0,0,0,0,0-.01,0-.1.04-.21.1-.33,0-.02.01-.03.02-.05.06-.11.15-.23.26-.34.02-.02.04-.04.06-.06.12-.11.27-.23.44-.34.03-.02.06-.04.09-.05.18-.11.39-.22.63-.31.03-.01.06-.02.09-.03.26-.1.54-.19.85-.27.36-.08.71-.14,1.05-.18.1-.01.2-.02.3-.03.25-.02.49-.04.73-.04.06,0,.12-.01.18-.01.03,0,.06,0,.1,0,.39,0,.78.03,1.15.08.07,0,.14.02.21.03.38.06.75.14,1.11.24,0,0,.01,0,.02,0,.37.11.72.24,1.07.38.06.03.13.05.19.08.33.15.66.3.97.48.06.03.12.07.18.1.32.18.64.37.94.58,0,0,0,0,0,0,.31.21.61.43.91.66.05.04.11.08.16.13.28.22.56.45.83.68.05.04.1.09.16.13.17.14.33.29.49.44.11.09.21.19.32.28.15.14.3.26.45.38.05.04.1.07.15.11.1.07.2.15.3.21.06.04.11.07.17.1.09.05.18.11.27.15.06.03.12.06.18.09.09.04.17.08.26.11.06.02.12.05.18.07.09.03.17.05.26.08.06.02.12.03.17.04.09.02.18.03.27.05.05,0,.11.02.16.02.1.01.2.02.3.02.04,0,.08,0,.12,0,0,0,.01,0,.02,0,.02,0,.04,0,.06,0,.16,0,.32-.01.48-.03.05,0,.1-.01.16-.02.16-.03.31-.06.47-.1.03,0,.05-.01.08-.02,0,0,.01,0,.02,0,.17-.05.35-.11.52-.17.05-.02.09-.04.14-.06.14-.06.28-.12.41-.18.04-.02.09-.04.13-.06.17-.08.34-.17.51-.27.02,0,.03-.02.05-.03,0,0,0,0,0,0,.02,0,.03-.02.05-.03.14-.08.28-.16.42-.25.05-.03.1-.06.14-.09.15-.1.3-.19.45-.29.01,0,.03-.02.04-.03.17-.11.33-.23.49-.34.06-.04.12-.08.17-.12.13-.09.27-.19.4-.28.16-.11.32-.22.47-.33.03-.02.06-.04.09-.06.12-.08.25-.17.37-.25.04-.03.08-.05.13-.08.3-.19.59-.36.87-.5.04-.02.08-.04.12-.06.11-.05.23-.1.34-.14.03-.01.06-.02.09-.03.14-.05.27-.08.4-.11.03,0,.06,0,.09-.01.11-.02.21-.03.31-.03.02,0,.04,0,.07,0,.02,0,.03,0,.05,0,.08,0,.15.01.23.02.04,0,.07,0,.11.02.11.02.22.05.32.1-.04-.18-.1-.36-.16-.54-.12-.41-.27-.81-.45-1.2-.27-.56-.61-1.11-1-1.63-.59-.78-1.31-1.51-2.15-2.17-.83-.66-1.78-1.26-2.82-1.76-.69-.34-1.42-.64-2.19-.9-.77-.26-1.57-.47-2.4-.64s-1.69-.29-2.57-.35c-.52-.04-1.04-.06-1.56-.06-.02,0-.03,0-.05,0-.46,0-.91.02-1.36.05,0,0,0,0,0,0-.47.03-.93.08-1.38.14-.15.02-.29.05-.44.08-.3.05-.6.1-.89.16-.17.04-.34.08-.51.12-.26.06-.52.12-.77.2-.18.05-.35.11-.52.17-.24.08-.47.15-.7.24-.17.06-.34.13-.5.2-.22.09-.43.18-.64.28-.16.08-.32.16-.48.24-.2.1-.4.21-.59.32-.15.09-.3.18-.45.27-.18.11-.36.23-.54.35-.14.1-.28.2-.41.3-.17.13-.33.26-.49.39-.13.11-.25.22-.37.33-.15.14-.29.28-.43.43-.11.12-.22.23-.33.35-.13.15-.25.31-.38.47-.09.12-.19.24-.28.37-.11.17-.21.34-.32.51-.07.13-.15.25-.22.38-.1.18-.17.37-.25.56-.05.12-.11.25-.16.37-.08.21-.14.43-.19.65-.03.11-.07.21-.09.32-.07.33-.12.67-.15,1.01,0,0,0,0,0,0-.03.35-.03.71,0,1.06.01.15.04.29.06.44.16,1.22.6,2.39,1.31,3.48Z"/>
  <path class="cls-1" d="M96.82,39.62c-.05.12-.12.25-.21.38,0,0-.01.01-.02.02-.09.13-.21.26-.34.39-.03.03-.05.05-.08.08-.14.13-.31.27-.5.4-.04.03-.08.05-.12.08-.21.14-.43.28-.68.41-.34.17-.67.31-1,.44-.1.04-.19.07-.28.1-.25.09-.5.16-.75.23-.09.02-.17.05-.26.07-.14.03-.27.05-.41.07-.18.03-.37.07-.55.1-.05,0-.1,0-.15.01-.27.03-.54.04-.81.05-.04,0-.08,0-.13,0-.05,0-.1,0-.16,0-.23,0-.45-.02-.68-.03-.08,0-.16-.01-.24-.02-.3-.03-.59-.08-.88-.13-.05-.01-.1-.02-.16-.03-.24-.05-.48-.11-.72-.17-.09-.02-.18-.05-.27-.08-.21-.06-.41-.13-.62-.2-.08-.03-.16-.05-.24-.08-.28-.1-.55-.2-.82-.32-.03-.01-.07-.03-.1-.04-.24-.1-.48-.21-.71-.32-.08-.04-.17-.08-.25-.12-.19-.09-.38-.19-.57-.28-.08-.04-.15-.08-.23-.12-.25-.13-.5-.26-.74-.4,0,0,0,0,0,0-.22-.12-.43-.22-.63-.3-.06-.03-.13-.05-.19-.07-.14-.05-.28-.1-.42-.15-.07-.02-.14-.04-.21-.06-.13-.03-.26-.06-.39-.08-.06-.01-.12-.02-.19-.03-.15-.02-.3-.03-.45-.03-.03,0-.05,0-.08,0,0,0,0,0-.01,0-.23,0-.44.02-.66.06-.04,0-.09.02-.13.02-.21.04-.41.1-.6.17-.03.01-.06.03-.1.04-.18.07-.36.15-.53.24-.03.01-.05.03-.08.04-.18.1-.36.22-.54.34-.04.03-.08.06-.12.08-.17.13-.34.26-.51.4-.02.02-.04.04-.06.05-.15.13-.31.27-.45.42-.03.03-.06.06-.09.09-.16.15-.31.31-.46.47-.04.04-.07.08-.11.12-.14.16-.29.32-.43.47-.02.03-.05.06-.07.08-.14.16-.27.31-.41.47-.16.18-.32.36-.47.54-.02.03-.05.05-.07.08-.14.15-.28.31-.41.45-.01.01-.02.02-.03.03-.14.14-.28.28-.41.41-.03.03-.06.05-.08.08-.14.12-.27.24-.41.34-.02.01-.04.03-.06.04-.13.09-.26.17-.39.25-.02.01-.04.03-.06.04-.14.07-.28.13-.42.17-.03,0-.06.02-.09.02-.14.04-.29.06-.43.06,0,0,0,0,0,0-.09,0-.19,0-.28-.02.13.25.27.5.42.74.05.08.1.15.16.22.11.16.23.32.35.47.07.08.14.16.21.25.12.14.25.28.38.42.08.08.15.16.23.23.15.14.3.28.46.41.07.06.14.13.22.19.23.19.47.37.72.54,0,0,.01,0,.02.01.26.17.53.34.8.49.09.05.18.1.27.15.19.1.39.21.59.3.11.05.22.1.33.15.2.09.39.17.6.25.12.05.23.09.35.13.22.08.44.15.67.22.11.03.21.07.32.1.32.09.65.18.98.25.01,0,.03,0,.04.01.35.08.7.14,1.06.2.11.02.23.03.35.05.25.03.5.06.76.09.14.01.28.02.42.03.24.02.49.03.73.04.14,0,.29,0,.43.01.08,0,.16,0,.24,0,.09,0,.19-.01.28-.01.37,0,.74-.02,1.12-.05.15-.01.3-.02.46-.03.51-.05,1.03-.11,1.55-.19,1.24-.21,2.41-.52,3.53-.92.24-.08.48-.16.72-.26,3.38-1.35,6.02-3.51,7.47-5.99.99-1.71,1.43-3.56,1.12-5.42-.05-.33-.14-.65-.23-.96-.03-.1-.07-.2-.11-.3-.07-.21-.15-.42-.25-.62-.05-.11-.11-.22-.17-.33-.09-.18-.2-.36-.3-.54-.07-.11-.14-.22-.21-.33-.03-.04-.05-.08-.08-.12,0,0-.02,0-.02-.01-.09-.12-.18-.24-.27-.36-.08-.1-.16-.2-.24-.3-.15-.17-.32-.34-.48-.5-.08-.08-.15-.16-.23-.23-.25-.23-.52-.46-.81-.67-.02-.02-.05-.03-.07-.05-.27-.19-.54-.38-.83-.55-.11-.06-.22-.12-.33-.19-.19-.11-.38-.21-.58-.31,0,0,0,0-.01-.01-.02-.01-.05-.02-.07-.03-.13-.06-.27-.13-.4-.19-.22-.1-.44-.19-.66-.28-.14-.06-.29-.11-.43-.16-.23-.08-.47-.16-.71-.23-.15-.04-.29-.09-.44-.13-.27-.07-.55-.14-.83-.2-.13-.03-.25-.06-.37-.08-.41-.08-.83-.15-1.25-.2-.05,0-.1,0-.15-.01-.38-.04-.76-.08-1.15-.1-.15,0-.3,0-.45-.01-.21,0-.43-.02-.64-.02-.07,0-.13,0-.2,0-.35,0-.71.02-1.07.04-.17.01-.35.01-.52.03-.54.05-1.07.11-1.62.2-7.1,1.18-12.4,5.73-12.88,10.66-.04.41-.06.81-.03,1.22.08.07.17.12.26.16.02.01.05.02.07.03.09.03.18.05.28.06,0,0,.01,0,.02,0,0,0,0,0,0,0,.09,0,.19-.02.28-.05.03,0,.06-.03.09-.04.07-.03.15-.07.22-.12.04-.02.07-.05.11-.08.08-.06.15-.13.23-.21,0,0,0,0,.01-.01.03-.03.06-.06.09-.1.11-.13.23-.27.35-.45.15-.23.33-.46.52-.69.05-.06.1-.12.15-.18.18-.22.38-.43.59-.64.02-.02.04-.04.06-.06.23-.23.48-.45.74-.66.07-.05.13-.11.2-.16.24-.18.48-.36.74-.53.04-.03.08-.06.13-.09.3-.19.61-.36.93-.51.08-.04.16-.07.24-.11.28-.13.57-.24.87-.34.07-.02.13-.05.2-.07.35-.11.72-.2,1.1-.26.09-.02.18-.02.27-.04.32-.04.65-.07.98-.08.06,0,.12-.01.18-.01.03,0,.07,0,.11,0,.18,0,.37.02.56.03.14.01.28.02.43.04.2.03.4.07.61.11.14.03.28.05.42.08.23.06.46.13.69.21.12.04.24.07.37.11.36.13.72.28,1.09.46.38.18.72.36,1.04.52.15.08.27.14.41.21.18.09.35.18.51.26.24.13.46.24.68.35.1.05.18.09.27.14.14.07.27.14.4.2.09.04.17.08.25.12.11.05.22.1.32.15.08.03.16.06.23.09.1.04.19.07.28.1.07.02.14.05.21.07.09.03.18.05.26.06.07.01.14.03.2.04.09.01.17.02.26.02.04,0,.09.01.13.01.03,0,.05,0,.08,0,.06,0,.12,0,.19-.01.08,0,.17-.02.26-.03.07-.01.13-.02.2-.04.09-.02.18-.04.28-.07.07-.02.15-.04.22-.07.1-.03.21-.07.31-.11.08-.03.16-.06.25-.09.12-.05.24-.1.37-.15.09-.04.17-.07.27-.11.14-.06.3-.13.46-.2.09-.04.18-.08.28-.13.18-.08.38-.18.58-.27.1-.04.18-.08.28-.13.24-.11.5-.24.77-.36.07-.03.12-.06.19-.09,0,0,0,0,0,0,.15-.07.29-.12.42-.16.04-.01.07-.02.11-.03.1-.02.19-.04.28-.04.02,0,.04,0,.05,0,0,0,0,0,.02,0,.12,0,.21.02.3.06.02,0,.03.02.05.03.08.04.14.1.18.17,0,0,0,.02,0,.02.04.07.05.15.06.25,0,.02,0,.03,0,.05,0,.1-.03.21-.07.32,0,.02-.02.05-.03.07Z"/>
  <path class="cls-1" d="M35.56,48.95c.41.33.82.63,1.24.92.14.09.28.18.42.27.28.19.57.37.86.54.17.1.33.19.5.28.27.14.53.29.8.42.18.09.35.17.53.25.26.12.52.23.79.33.18.07.36.14.54.2.26.1.53.18.79.26.17.05.35.11.52.16.28.08.55.14.83.2.16.03.32.07.47.1.33.06.65.1.97.14.1.01.21.03.31.04.42.04.84.06,1.24.06.01,0,.03,0,.04,0,.34,0,.68-.02,1.01-.04.08,0,.16-.02.25-.03.26-.03.52-.06.77-.11.12-.02.24-.05.36-.08.21-.05.42-.09.62-.15.12-.04.25-.08.37-.12.19-.06.38-.13.56-.21.12-.05.24-.1.35-.15.18-.08.36-.17.53-.27.11-.06.21-.12.32-.18.18-.11.36-.23.53-.36.08-.06.17-.12.25-.18.25-.2.48-.4.7-.63,0-.07-.01-.15-.03-.22,0-.02-.01-.04-.02-.06-.01-.05-.03-.09-.05-.14-.01-.02-.03-.05-.04-.07-.02-.04-.05-.08-.08-.11-.02-.02-.04-.04-.06-.06-.03-.03-.07-.06-.11-.09-.02-.02-.05-.03-.07-.05-.05-.03-.11-.06-.17-.08-.03,0-.05-.02-.07-.03-.09-.03-.2-.05-.31-.07-.02,0-.05,0-.07,0-.08,0-.17-.02-.27-.02-.01,0-.03,0-.04,0-.17,0-.35.01-.55.04-.43.06-.89.09-1.38.09,0,0,0,0-.01,0-.22,0-.44,0-.67-.02-.06,0-.13-.01-.19-.02-.17-.01-.34-.03-.52-.05-.09-.01-.18-.03-.26-.04-.15-.02-.31-.05-.46-.08-.1-.02-.19-.04-.29-.06-.15-.03-.3-.07-.45-.11-.1-.03-.2-.05-.29-.08-.15-.05-.3-.1-.45-.15-.09-.03-.19-.07-.28-.1-.16-.06-.32-.13-.48-.21-.08-.04-.16-.07-.24-.11-.21-.1-.41-.22-.61-.34-.03-.02-.06-.03-.09-.05-.23-.14-.46-.3-.68-.46-.06-.05-.12-.1-.19-.15-.16-.12-.31-.25-.46-.39-.08-.07-.15-.15-.23-.22-.13-.13-.26-.26-.38-.4-.08-.09-.15-.18-.23-.27-.12-.14-.23-.29-.34-.44-.07-.1-.14-.2-.21-.31-.11-.16-.21-.34-.31-.51-.06-.11-.12-.21-.18-.33-.1-.2-.2-.41-.29-.62-.04-.1-.09-.2-.13-.31-.13-.33-.25-.67-.35-1.03-.06-.22-.12-.42-.17-.63,0,0,0,0,0,0-.22-.79-.39-1.47-.54-2.04-.01-.04-.02-.1-.04-.14-.13-.5-.24-.92-.36-1.28-.12-.36-.24-.67-.38-.94-.14-.27-.31-.5-.52-.72-.11-.11-.22-.21-.35-.31-.39-.3-.89-.58-1.59-.9-.69-.32-1.57-.68-2.69-1.15-.17-.07-.3-.14-.42-.22-.03-.02-.06-.04-.09-.06-.11-.08-.2-.16-.27-.24,0,0,0,0,0,0-.07-.08-.1-.16-.13-.24,0-.02-.01-.04-.02-.06-.02-.08-.02-.16,0-.23,0,0,0,0,0,0,.02-.07.07-.14.13-.2.01-.02.03-.03.05-.05.07-.06.14-.12.24-.16,0,0,0,0,0,0,.1-.05.22-.08.35-.11.03,0,.07-.01.1-.02.14-.02.28-.04.45-.04,0,0,0,0,0,0,0,0,0,0,0,0,.07,0,.15,0,.23.01.06,0,.11,0,.17,0,.08,0,.16.02.24.04.07.01.13.02.2.03.1.02.21.05.32.08.06.01.11.02.17.04.17.05.34.11.52.18,3.43,1.33,5.08,3.94,6.06,6.75.25.71.45,1.42.63,2.14.06.24.12.48.17.71.05.22.11.43.18.62.02.07.05.12.07.19.05.13.09.25.14.37.03.07.07.13.1.2.05.1.1.2.15.29.04.07.08.13.12.19.05.08.11.17.17.25.04.06.09.11.14.17.06.07.12.14.18.21.05.05.1.1.15.15.06.06.13.12.2.18.05.04.11.09.16.13.07.05.14.1.21.15.06.04.11.07.17.11.08.04.15.08.23.12.06.03.12.06.18.09.08.04.16.07.25.1.06.02.12.05.18.07.09.03.18.06.27.08.06.02.12.04.18.05.1.03.2.05.3.07.05.01.1.02.16.03.13.03.26.05.4.07.02,0,.05,0,.07.01.16.02.32.04.48.05.05,0,.11,0,.16.01.11,0,.22.02.33.02.07,0,.14,0,.2,0,.1,0,.19,0,.29,0,.07,0,.15,0,.22,0,.09,0,.18,0,.28,0,.02,0,.04,0,.06,0,.03,0,.06,0,.09,0,.31,0,.61,0,.91,0,.27,0,.55,0,.81,0,.02,0,.05,0,.07,0,.03,0,.05,0,.07,0,.13,0,.26,0,.38,0,.05,0,.1,0,.15,0,.17,0,.33.01.49.03.02,0,.04,0,.06,0,.13.01.26.03.39.04.05,0,.09.01.14.02.11.02.21.04.31.06.04,0,.08.02.12.03.13.03.26.07.38.12.01,0,.02.01.03.02.11.04.21.1.3.15.03.02.06.04.09.06.07.05.14.1.21.16.03.02.05.05.08.07.09.09.16.18.23.28.33-.85.52-1.76.57-2.72s-.05-1.95-.28-2.96c-.15-.67-.36-1.35-.63-2.03-.13-.34-.28-.68-.44-1.02-.23-.48-.49-.95-.78-1.42-.12-.2-.23-.4-.36-.59-.21-.32-.44-.64-.68-.96,0,0,0-.01-.01-.02-.49-.65-1.03-1.27-1.62-1.88-.59-.61-1.23-1.19-1.92-1.74-.42-.33-.84-.64-1.27-.94-.14-.1-.28-.18-.42-.27-.29-.19-.58-.38-.87-.55-.17-.1-.34-.19-.52-.28-.27-.14-.54-.29-.8-.42-.15-.07-.3-.13-.45-.2,0,0,0,0,0,0-.04-.02-.07-.03-.11-.05-.26-.12-.52-.23-.78-.33-.19-.07-.38-.14-.57-.21-.25-.09-.51-.18-.76-.25-.19-.06-.38-.11-.58-.16-.25-.07-.5-.13-.75-.18-.19-.04-.38-.08-.57-.11-.25-.04-.49-.08-.74-.11-.19-.02-.37-.05-.56-.06-.24-.02-.49-.03-.73-.04-.12,0-.25-.02-.37-.02-.06,0-.13,0-.19,0-.16,0-.32.01-.48.02-.22.01-.43.03-.64.05-.16.02-.31.04-.47.06-.21.03-.41.07-.61.11-.15.03-.3.07-.45.11-.2.05-.39.11-.58.18-.14.05-.28.09-.42.15-.19.07-.37.16-.55.24-.13.06-.26.12-.38.19-.18.1-.35.21-.53.32-.11.07-.23.14-.33.21-.18.13-.35.28-.52.42-.08.07-.17.14-.25.21-.24.23-.48.48-.69.74-2.23,2.79-2.17,6.86-.26,10.76,1.14,2.33,2.94,4.59,5.31,6.49Z"/>
  <path class="cls-1" d="M124.81,51c.29-.13.57-.27.85-.41.14-.07.28-.13.42-.21.42-.22.84-.46,1.26-.72,4.14-2.56,6.94-6.23,7.88-9.81.56-2.15.46-4.26-.44-6.08-.1-.03-.2-.04-.3-.05-.01,0-.03,0-.04,0-.02,0-.05,0-.07,0-.02,0-.05,0-.07,0-.05,0-.1.02-.15.04-.02,0-.04,0-.05.02-.07.03-.13.07-.2.12-.01.01-.03.03-.04.04-.05.04-.1.09-.14.15-.02.02-.04.05-.06.08-.04.05-.08.11-.11.18-.02.04-.04.07-.06.11-.04.07-.07.16-.1.25-.01.04-.03.08-.04.12-.04.14-.08.29-.12.45-.04.2-.09.41-.15.63-.02.07-.04.14-.07.21-.04.15-.09.29-.14.44-.03.09-.07.18-.1.26-.05.13-.1.27-.16.4-.04.09-.09.19-.13.28-.06.13-.12.26-.18.39-.05.1-.11.2-.16.29-.02.04-.04.08-.06.12-.05.09-.1.17-.15.26-.06.1-.13.2-.19.3-.08.12-.16.24-.24.36-.07.1-.15.19-.22.29-.09.12-.18.23-.27.34-.05.06-.11.13-.17.19-.03.03-.05.06-.08.09-.1.11-.2.22-.3.32-.09.09-.18.18-.28.27-.11.1-.22.2-.33.3-.1.08-.21.16-.31.25-.12.09-.24.18-.37.27-.11.08-.23.15-.34.22-.13.08-.27.16-.41.23-.12.07-.25.13-.37.19-.14.07-.29.13-.44.2-.13.05-.27.11-.41.15-.16.05-.32.1-.48.15-.14.04-.29.08-.44.12-.17.04-.34.07-.52.1-.15.03-.31.05-.47.07-.18.02-.37.04-.56.05-.17.01-.33.02-.5.02-.07,0-.13,0-.2,0-.25,0-.5,0-.77-.03-.36-.02-.69-.05-1.01-.07-.09,0-.17-.01-.26-.02-.26-.02-.51-.04-.75-.07-.03,0-.06,0-.09,0-.07,0-.13-.01-.19-.02-.16-.01-.31-.03-.46-.04-.07,0-.14-.01-.21-.02-.19-.02-.36-.03-.53-.04-.05,0-.09,0-.14-.01-.19-.01-.37-.02-.54-.03-.04,0-.08,0-.12,0-.07,0-.15,0-.22,0-.06,0-.12,0-.18,0-.03,0-.07,0-.1,0-.15,0-.29.02-.42.04-.03,0-.05,0-.08.01-.12.02-.23.04-.34.07-.02,0-.05.01-.07.02-.12.04-.24.08-.36.14-.03.01-.05.03-.08.04-.11.05-.21.11-.32.18-.02.01-.04.02-.05.03-.12.08-.25.17-.37.27-.03.02-.06.05-.09.07-.11.09-.22.19-.34.29,0,0-.02.02-.03.03-.01.01-.03.03-.04.04-.14.13-.29.28-.45.44-.04.04-.08.08-.11.12,0,0-.02.02-.03.03-.14.15-.29.3-.45.47-.01.01-.02.02-.03.04-.19.2-.39.42-.6.65-.06.06-.11.12-.17.19-.09.1-.18.2-.28.31,0,0,0,0,0,0,.42.1.82.21,1.22.34,3.31,1.03,6.05,2.85,7.8,5.25,0,0,0,0,0,0,.07-.02.14-.05.21-.07.02,0,.03-.01.05-.02.16-.05.32-.1.49-.16.26-.09.52-.2.78-.31.17-.07.34-.13.51-.21Z"/>
  <path class="cls-1" d="M117.68,31.45c-.11.06-.22.13-.33.19-.28.16-.56.31-.84.48-.43.27-.85.55-1.25.84-1.06.76-2,1.61-2.84,2.5,0,0,0,0,0,0-.11.12-.24.24-.35.36-.85.96-1.57,1.96-2.15,2.99-.63,1.13-1.09,2.28-1.36,3.41-.24,1.02-.32,2.02-.24,2.99,0,0,0,0,0,0,.01.12.01.25.03.37.09,0,.19,0,.28,0,1.13,0,2.24.09,3.31.25,0-.03.02-.07.03-.1,0,0,0-.02.01-.03,0,0,0,0,0,0,.05-.14.1-.29.18-.44,0-.01.02-.03.02-.05.08-.15.17-.31.28-.48.03-.05.06-.09.09-.14.13-.18.27-.37.43-.56.26-.31.54-.58.82-.84.03-.03.05-.06.08-.08.04-.04.09-.07.14-.11.26-.23.53-.44.8-.63.02-.01.04-.03.06-.05.29-.2.59-.37.89-.53.08-.04.16-.08.23-.12.24-.12.49-.23.74-.32.03-.01.05-.02.08-.03.04-.01.08-.03.11-.05.31-.11.63-.21.94-.29.08-.02.16-.04.24-.06.28-.06.55-.12.83-.16.05,0,.1-.02.15-.03.32-.05.64-.08.97-.1.08,0,.16,0,.24-.01.27-.02.55-.02.82-.03.04,0,.08,0,.12,0,.02,0,.03,0,.05,0,.49,0,.98.02,1.46.05.02,0,.05,0,.07,0,.5.04,1.01.08,1.5.14,0,0,0,0,0,0,.25.03.49.04.72.04.02,0,.05,0,.07,0,.03,0,.05,0,.08,0,.33,0,.64-.03.93-.09.03,0,.06-.01.09-.02.29-.06.56-.14.81-.25.02,0,.04-.02.06-.03.25-.11.49-.25.71-.4,0,0,.01-.01.02-.02.22-.16.42-.34.61-.53,0,0,.01-.01.02-.02.02-.02.03-.04.04-.05.16-.18.32-.37.46-.57.01-.02.03-.03.04-.05.15-.22.28-.45.41-.68.01-.03.03-.05.04-.08.08-.15.15-.3.22-.46.04-.09.09-.17.12-.26.01-.03.03-.07.04-.1.1-.24.2-.48.29-.73.02-.04.03-.08.05-.13.09-.24.17-.49.26-.73.09-.26.18-.52.27-.78.01-.04.03-.08.04-.13.08-.24.17-.48.25-.7.01-.03.02-.06.04-.1.09-.22.17-.44.27-.64.01-.03.03-.05.04-.08.09-.2.19-.39.3-.57.01-.02.03-.04.04-.06.11-.17.22-.33.35-.47.01-.01.02-.02.04-.04.13-.14.27-.26.42-.36,0,0,.02,0,.02-.01.16-.1.33-.17.52-.22-.22-.19-.46-.38-.7-.55-.08-.06-.17-.1-.25-.16-.17-.11-.34-.22-.51-.31-.11-.06-.22-.11-.33-.16-.16-.08-.33-.16-.5-.24-.12-.05-.25-.09-.38-.14-.17-.06-.33-.13-.51-.18-.13-.04-.27-.08-.41-.11-.17-.05-.35-.09-.52-.13-.14-.03-.29-.06-.43-.08-.18-.03-.36-.06-.54-.09-.15-.02-.3-.04-.46-.05-.18-.02-.37-.03-.56-.05-.16,0-.31-.01-.47-.02-.11,0-.21-.01-.32-.01-.08,0-.16,0-.23,0-.2,0-.41.01-.61.02-.17,0-.35.02-.52.04-.21.02-.42.04-.63.07-.18.02-.35.05-.53.07-.21.03-.43.08-.65.12-.18.04-.35.07-.53.11-.22.05-.44.11-.66.17-.17.05-.35.09-.52.15-.06.02-.11.04-.17.06-.17.05-.34.11-.51.17-.17.06-.34.11-.51.18-.24.09-.47.19-.71.29-.16.07-.32.13-.48.2-.26.12-.52.25-.78.38-.13.07-.27.13-.4.2Z"/>
  <path class="cls-1" d="M121.51,57.51c-.1-.04-.2-.06-.31-.06,0,0,0,0,0,0-.01,0-.03,0-.04,0-.08,0-.16.02-.24.04-.03.01-.07.03-.1.04-.07.03-.14.06-.21.11-.04.02-.08.05-.11.08-.07.06-.15.12-.23.2-.04.04-.07.07-.11.11-.12.12-.23.26-.36.43,0,0,0,0,0,0,0,0-.01.02-.02.02-.08.11-.17.22-.26.32-.08.11-.16.21-.25.32-.05.06-.1.12-.16.18-.17.19-.35.38-.55.57-.04.04-.07.07-.11.11-.23.21-.48.42-.73.63-.06.05-.13.1-.2.15-.22.16-.44.32-.68.47-.07.04-.13.09-.2.13-.29.18-.6.34-.92.49-.06.03-.13.05-.19.08-.27.12-.55.22-.83.32-.09.03-.18.06-.28.09-.35.1-.71.19-1.08.25-.03,0-.07,0-.1.01-.34.05-.69.07-1.05.08-.05,0-.11.01-.16.01-.07,0-.14-.01-.21-.01-.2,0-.4-.02-.6-.04-.14-.01-.28-.03-.42-.05-.21-.03-.43-.07-.64-.12-.14-.03-.28-.06-.42-.09-.24-.06-.48-.15-.73-.23-.12-.04-.24-.08-.36-.12-.37-.14-.74-.31-1.12-.51-.38-.2-.72-.38-1.04-.56-.14-.07-.25-.14-.38-.21-.19-.11-.38-.21-.55-.3-.23-.13-.45-.25-.65-.36-.1-.05-.18-.1-.27-.15-.14-.08-.27-.15-.4-.21-.08-.04-.16-.09-.24-.13-.11-.06-.22-.11-.33-.16-.08-.03-.15-.07-.22-.1-.1-.04-.2-.08-.29-.11-.07-.02-.14-.05-.2-.07-.1-.03-.19-.05-.28-.07-.06-.01-.12-.03-.18-.04-.1-.02-.2-.02-.31-.03-.04,0-.09-.01-.13-.01,0,0-.02,0-.03,0-.05,0-.1,0-.15,0-.1,0-.19.01-.29.03-.06,0-.12.02-.19.03-.1.02-.19.04-.3.06-.07.02-.14.04-.22.06-.02,0-.04.01-.06.02-.09.03-.18.05-.27.08-.08.03-.16.05-.24.08-.12.04-.25.09-.38.14-.09.03-.18.07-.27.1-.14.06-.3.12-.45.19-.1.04-.19.08-.29.12-.18.08-.38.16-.59.25-.09.04-.18.08-.27.12-.3.13-.62.27-.96.42-.15.07-.28.11-.41.14-.04.01-.07.02-.11.02-.09.02-.17.03-.25.03-.02,0-.04,0-.06,0,0,0-.02,0-.02,0-.12,0-.22-.02-.3-.06-.02,0-.03-.02-.04-.02-.08-.04-.15-.1-.19-.17,0,0,0,0,0,0-.04-.07-.06-.17-.06-.27,0-.02,0-.04,0-.06,0-.1.03-.21.07-.32,0-.02.02-.05.03-.07.05-.12.12-.25.22-.38,0,0,0,0,0,0,.1-.13.23-.27.37-.4.03-.03.05-.05.08-.08.15-.13.32-.26.51-.39.04-.02.08-.05.12-.07.21-.13.44-.27.7-.39,0,0,0,0,0,0,0,0,0,0,0,0,.32-.15.64-.28.96-.39.1-.03.2-.06.29-.09.22-.07.44-.13.66-.19.1-.03.21-.05.31-.07.23-.05.45-.08.68-.11.08-.01.16-.03.24-.03.24-.02.48-.03.71-.04.06,0,.13,0,.19-.01,0,0,.02,0,.03,0,.04,0,.08,0,.11,0,.27,0,.54.02.8.04.09,0,.18.02.27.03.24.03.48.07.72.11.07.01.14.02.2.04.3.06.59.14.88.22.07.02.13.04.2.06.23.07.46.15.68.23.09.03.17.06.26.1.24.09.48.19.71.3.04.02.09.04.13.05.28.12.55.26.82.39.07.04.15.08.22.11.2.11.41.21.61.32.08.04.15.08.23.13.26.14.51.29.76.43.22.13.43.24.64.33.06.03.13.05.19.08.15.06.3.12.44.16.06.02.13.04.19.06.16.04.32.08.48.11.04,0,.07.02.11.02.19.03.38.04.56.04.01,0,.02,0,.04,0,.02,0,.05,0,.07,0,.2,0,.39-.02.58-.05.03,0,.07,0,.1-.01.2-.04.4-.09.6-.16.04-.01.08-.03.13-.05.2-.07.39-.16.58-.25,0,0,0,0,.01,0,.19-.1.37-.21.54-.33.04-.03.08-.05.11-.08.17-.12.34-.25.51-.38.03-.02.06-.05.09-.08.15-.13.3-.26.45-.4.02-.02.05-.04.07-.06.16-.15.32-.3.47-.46.04-.04.07-.07.11-.11.15-.16.3-.31.45-.47.01-.02.03-.03.04-.05.16-.17.31-.34.47-.5.15-.16.3-.33.45-.48.02-.03.05-.05.07-.08.05-.06.11-.11.16-.17.08-.08.16-.17.24-.24.02-.02.04-.04.05-.05.14-.14.28-.26.41-.38.03-.03.06-.05.09-.08.09-.08.18-.14.27-.21,0,0,0,0,0,0,.05-.04.11-.08.16-.12.01,0,.03-.02.04-.03.13-.09.26-.17.39-.24.03-.01.06-.03.08-.04.14-.07.28-.12.41-.16.03,0,.06-.01.08-.02.12-.03.23-.05.35-.05.02,0,.03,0,.05,0,.01,0,.02,0,.03,0,0,0,0,0,.01,0,.11,0,.21.01.32.03-.12-.26-.26-.51-.41-.76-.05-.08-.1-.16-.15-.23-.11-.16-.22-.33-.34-.48-.07-.09-.14-.18-.21-.26-.12-.14-.23-.28-.36-.42-.08-.08-.15-.16-.23-.24,0,0,0,0,0,0,0,0,0,0,0,0-.13-.13-.27-.26-.41-.39-.09-.08-.18-.16-.27-.24-.05-.04-.09-.09-.14-.13,0,0,0,0,0,0-.1-.08-.21-.16-.32-.24-.09-.07-.18-.14-.27-.2-.2-.14-.42-.28-.63-.41-.06-.04-.11-.07-.17-.11-.28-.17-.57-.32-.86-.47-.08-.04-.17-.08-.26-.12-.22-.1-.44-.2-.66-.3-.08-.03-.17-.07-.25-.1-.04-.01-.07-.03-.11-.04-.2-.08-.41-.15-.62-.23-.13-.04-.27-.09-.4-.13-.21-.06-.42-.12-.63-.18-.14-.04-.28-.07-.42-.11-.22-.05-.45-.1-.68-.15-.14-.03-.27-.06-.41-.08-.26-.05-.53-.08-.79-.12-.11-.01-.21-.03-.32-.04-.38-.04-.76-.07-1.14-.09-.07,0-.15,0-.23,0-.02,0-.04,0-.07,0,0,0,0,0,0,0-.29-.01-.58-.02-.87-.02-.3,0-.59.02-.89.03-.15,0-.3,0-.45.02-.35.02-.71.07-1.07.11-.08,0-.15.01-.23.02-.02,0-.04,0-.06,0,0,0,0,0,0,0-2.01.27-3.89.82-5.57,1.57-.42.19-.82.39-1.22.6-.78.43-1.51.9-2.18,1.42-1.66,1.29-2.92,2.82-3.63,4.47-.29.66-.49,1.34-.59,2.03-.08.55-.09,1.11-.04,1.67,0,0,0,0,0,0,.01.14,0,.28.03.42.05.33.12.66.21.98.03.11.07.21.1.31.07.21.14.42.23.62.05.12.11.23.17.35.09.18.18.36.28.54.07.12.14.23.22.35.11.17.23.33.35.49.09.11.17.22.26.33.09.1.18.21.27.31.05.05.1.1.15.15.1.1.19.2.3.3.16.15.33.3.51.44.1.08.2.17.3.25.21.17.44.32.67.48.08.05.15.11.22.16.31.2.64.39.98.56.09.05.19.09.28.13.25.13.51.25.78.36.14.06.28.11.42.16.23.09.47.18.71.26.14.05.29.09.44.13.01,0,.02,0,.04.01.24.07.48.14.72.2.17.04.34.08.51.12.25.05.5.1.76.15.17.03.35.06.52.08.27.04.54.07.81.09.17.02.34.04.51.05.31.02.62.03.93.04.14,0,.28.01.43.01.03,0,.06,0,.09,0,.29,0,.58-.02.88-.03.16,0,.31,0,.47-.02.48-.03.97-.08,1.46-.15.48-.07.96-.15,1.42-.24.93-.19,1.83-.44,2.68-.75s1.67-.66,2.43-1.06,1.47-.84,2.13-1.32c.98-.72,1.83-1.53,2.52-2.4.14-.17.26-.35.38-.53.61-.86,1.06-1.77,1.35-2.71.24-.81.37-1.64.34-2.49-.08-.07-.17-.12-.27-.17-.02-.01-.05-.02-.07-.03Z"/>
  <path class="cls-1" d="M70.66,58.23c-.73-.51-1.53-.98-2.37-1.39-1.27-.63-2.66-1.14-4.14-1.5,0,0,0,0,0,0-.45-.11-.89-.2-1.33-.28-.15-.03-.29-.04-.44-.07-.3-.05-.59-.09-.88-.13-.17-.02-.34-.03-.51-.05-.27-.02-.53-.04-.8-.06-.18,0-.35-.01-.52-.02-.14,0-.28-.01-.41-.01s-.26,0-.39.01c-.13,0-.27,0-.4.01-.32.01-.63.04-.94.06-.08,0-.17.01-.25.02-.39.04-.77.1-1.14.16-.09.02-.19.04-.28.06-.28.05-.56.12-.83.18-.12.03-.24.06-.35.09-.25.07-.5.15-.75.23-.1.03-.21.07-.31.1-.34.12-.66.25-.98.39-.01,0-.02.01-.04.02-.3.14-.59.29-.88.45-.09.05-.18.1-.27.16-.2.12-.4.25-.6.38-.09.06-.18.12-.26.19-.2.15-.4.31-.59.47-.06.05-.11.09-.17.14-.24.21-.46.43-.67.66-.05.06-.09.11-.14.17-.15.18-.3.36-.44.56-.06.08-.12.17-.17.25-.12.18-.23.37-.34.56-.04.08-.09.16-.13.25-.14.27-.26.55-.36.84.04.08.09.15.14.21.02.02.04.04.05.05.04.04.08.08.12.11.03.02.05.03.08.05.04.03.09.05.14.07.03.01.07.02.1.03.05.01.11.02.16.02.02,0,.04,0,.06,0,.03,0,.06,0,.09,0,.04,0,.08,0,.12-.01.06,0,.13-.03.19-.04.04-.01.08-.02.13-.04.08-.03.16-.06.24-.1.04-.02.08-.03.12-.05.13-.07.27-.14.42-.24.18-.11.36-.22.56-.33.07-.04.14-.07.2-.1.13-.07.27-.14.41-.21.09-.04.18-.08.27-.12.13-.06.26-.11.39-.17.1-.04.2-.07.3-.11.13-.05.27-.1.41-.14.11-.03.22-.06.33-.09.14-.04.27-.08.41-.11.11-.03.23-.05.35-.07.14-.03.28-.06.42-.08.12-.02.24-.03.36-.05.14-.02.29-.04.44-.05.12,0,.25-.01.38-.02.11,0,.23-.01.34-.01.03,0,.07,0,.1,0,.15,0,.31.01.46.02.13,0,.27.01.4.03.16.02.31.04.47.07.14.02.27.04.41.07.16.03.32.08.47.12.13.04.27.07.4.11.16.05.32.12.48.18.13.05.26.1.4.16.16.07.32.17.49.25.13.07.26.13.38.2.17.1.33.22.5.34.12.08.24.15.35.24.19.14.37.31.55.47.09.08.19.15.28.24.27.26.54.54.81.85.24.28.46.55.67.8.07.09.13.16.2.25.14.17.28.33.4.49.1.12.19.24.29.35.12.14.22.27.33.4.11.13.21.25.31.37.04.05.09.1.13.15.13.15.25.29.37.42.03.04.06.07.1.1.09.09.17.18.25.26.04.04.08.08.12.11.07.07.15.13.22.19.04.03.08.07.13.1.08.06.16.11.24.15.04.02.07.05.11.07.12.06.24.12.37.17,0,0,.01,0,.02,0,0,0,.02,0,.03,0,.11.04.23.08.36.11.05.01.1.02.16.03.1.02.21.04.32.05.06,0,.13.02.19.02.12.01.24.02.37.03.07,0,.13,0,.2.01.16,0,.34.01.53.01.04,0,.08,0,.12,0,0,0,.01,0,.02,0,.22,0,.47,0,.72,0,.08,0,.17,0,.25,0,.21,0,.42-.01.65-.02.1,0,.2,0,.3-.01.3-.01.61-.02.95-.03.04,0,.08,0,.13,0,.05,0,.08,0,.13,0,.06,0,.11,0,.17.01.06,0,.11.02.16.03.05,0,.09.02.14.03.05.01.09.03.13.05.04.01.07.03.11.04.04.02.06.04.09.06.03.02.06.04.08.06.02.02.04.05.06.07.02.02.04.04.05.07.01.03.02.06.03.09,0,.03.02.05.02.08,0,.03,0,.06,0,.09,0,.03,0,.05,0,.08,0,.03-.02.07-.04.1-.01.03-.02.06-.04.09-.02.03-.05.07-.07.1-.02.03-.04.06-.06.09-.03.03-.07.07-.1.1-.03.03-.06.06-.09.09-.04.03-.09.06-.14.1-.04.03-.07.05-.12.08-.05.03-.11.06-.17.09-.05.02-.09.05-.14.07-.06.03-.13.05-.2.08-.06.02-.11.04-.17.06-.08.03-.16.05-.25.07-.06.02-.12.04-.18.05-.1.02-.22.04-.33.06-.05,0-.1.02-.16.03-.17.02-.35.04-.54.06-.23.01-.45.02-.67.02-.04,0-.08,0-.12,0-.13,0-.26,0-.39-.02-.15,0-.31-.02-.45-.03-.13-.01-.25-.03-.37-.05-.14-.02-.29-.04-.43-.07-.12-.02-.24-.05-.36-.08-.14-.03-.27-.06-.41-.1-.12-.03-.23-.07-.34-.1-.13-.04-.26-.09-.39-.13-.11-.04-.22-.08-.32-.13-.12-.05-.25-.1-.37-.16-.1-.05-.21-.1-.31-.15-.12-.06-.24-.12-.35-.19-.1-.05-.2-.11-.29-.17-.11-.07-.23-.14-.34-.21-.09-.06-.19-.12-.28-.19-.11-.08-.22-.15-.32-.23-.09-.07-.18-.13-.26-.2-.02-.01-.03-.02-.05-.03-.09-.07-.18-.15-.27-.22-.08-.07-.17-.14-.25-.21-.1-.09-.2-.18-.31-.28-.08-.07-.16-.14-.23-.22-.1-.1-.2-.2-.3-.3-.07-.07-.15-.15-.22-.22-.1-.1-.2-.21-.29-.31-.07-.07-.14-.15-.2-.22-.1-.11-.2-.23-.3-.34-.06-.07-.12-.14-.18-.2-.01-.02-.03-.04-.04-.05-.09-.11-.18-.22-.27-.33-.05-.06-.09-.11-.14-.17-.15-.19-.3-.37-.44-.56-.14-.18-.28-.34-.42-.5-.05-.05-.1-.09-.14-.14-.1-.1-.19-.19-.29-.28-.06-.05-.11-.09-.17-.14-.09-.07-.18-.14-.27-.21-.06-.04-.12-.08-.18-.12-.09-.05-.18-.11-.27-.16-.06-.03-.13-.06-.19-.09-.09-.04-.18-.08-.26-.11-.06-.02-.13-.05-.19-.07-.09-.03-.18-.06-.27-.08-.06-.02-.13-.03-.19-.05-.09-.02-.18-.03-.27-.04-.06,0-.13-.02-.19-.02-.09,0-.18-.01-.28-.01-.05,0-.09,0-.14,0-.02,0-.03,0-.05,0-.16,0-.32,0-.49.03,0,0-.01,0-.02,0-.16.02-.33.04-.49.07-.06.01-.11.02-.17.04-.11.02-.22.05-.34.08-.06.02-.13.03-.19.05-.11.03-.22.06-.32.1-.06.02-.12.04-.18.06-.13.04-.25.09-.38.14-.04.01-.08.03-.11.04-.16.06-.32.13-.48.2-.05.02-.11.05-.16.07-.09.04-.19.08-.28.13-.02,0-.03.01-.05.02-.07.03-.13.06-.2.09-.1.04-.19.09-.29.13-.08.04-.17.08-.25.12-.07.03-.13.06-.2.09-.22.1-.43.21-.64.31-.02,0-.04.02-.05.03-.13.06-.26.12-.39.18-.05.02-.09.04-.14.06-.1.04-.2.09-.3.13-.05.02-.1.04-.15.06-.1.04-.19.07-.29.11-.05.02-.09.03-.14.05-.13.04-.26.08-.39.11,0,0-.01,0-.02,0-.13.03-.26.06-.39.08-.04,0-.08,0-.12.01-.09,0-.17.02-.26.02-.02,0-.04,0-.06,0-.01,0-.03,0-.04,0-.16,0-.32-.02-.48-.06-.02,0-.04-.01-.06-.02-.16-.05-.31-.11-.46-.2.15,2.73,1.77,5.44,4.37,7.59.58.48,1.2.93,1.88,1.35.34.21.68.41,1.04.6s.72.37,1.1.55c1.13.52,2.34.94,3.63,1.26.46.11.92.21,1.37.29.15.03.3.05.44.07.31.05.61.09.92.13.17.02.34.03.51.05.28.02.57.04.85.05.17,0,.34.01.5.02.1,0,.21,0,.31,0,.2,0,.39-.01.59-.02.12,0,.24,0,.37-.01.42-.02.83-.05,1.23-.1.05,0,.09-.01.13-.02.36-.05.71-.1,1.06-.17.12-.02.24-.05.36-.08.27-.06.54-.12.8-.2.12-.03.25-.07.37-.1.28-.08.55-.18.82-.28.08-.03.17-.06.25-.09.35-.13.68-.28,1-.44.07-.03.13-.07.2-.11.25-.13.5-.27.73-.41.1-.06.19-.12.28-.18.2-.13.4-.27.59-.42.09-.07.17-.13.26-.2.22-.18.43-.36.63-.56.04-.04.08-.07.12-.11.23-.23.45-.48.64-.73.05-.07.1-.14.15-.21.14-.19.27-.38.39-.58.06-.09.11-.19.16-.28.11-.2.21-.4.3-.61.04-.09.08-.18.12-.27.12-.3.22-.6.3-.92.18-.71.24-1.43.2-2.16-.12-2.42-1.39-4.84-3.49-6.86-.6-.58-1.28-1.13-2.01-1.64Z"/>
  <path class="cls-1" d="M29.14,56.57c-.05-.33-.13-.64-.23-.96-.03-.1-.07-.2-.11-.3-.07-.21-.15-.41-.24-.61-.05-.11-.11-.22-.17-.34-.09-.18-.19-.36-.3-.54-.07-.11-.14-.22-.21-.33-.12-.17-.24-.34-.38-.5-.08-.1-.16-.2-.24-.3-.15-.17-.32-.34-.48-.5-.08-.08-.15-.16-.24-.23-.25-.23-.52-.46-.81-.67-.02-.02-.05-.03-.07-.05-.26-.19-.54-.38-.83-.55-.11-.06-.22-.12-.33-.19-.21-.12-.43-.24-.65-.35-.13-.06-.27-.13-.4-.19-.11-.05-.22-.11-.34-.16-.1-.04-.21-.08-.32-.12-.14-.06-.29-.11-.43-.16-.23-.08-.47-.16-.71-.23-.15-.04-.29-.09-.44-.13-.27-.07-.55-.14-.83-.2-.13-.03-.25-.06-.38-.09-.41-.08-.83-.15-1.25-.2-.05,0-.1,0-.15-.01-.38-.04-.76-.08-1.15-.1-.15,0-.3,0-.45-.01-.21,0-.43-.02-.64-.02-.07,0-.13,0-.2,0-.35,0-.71.02-1.07.04-.17.01-.35.02-.52.03-.53.05-1.07.11-1.62.2C5.24,50.09-.35,55.32.02,60.7c.08.07.17.12.26.16.02.01.05.02.07.03.09.03.18.05.28.06,0,0,.02,0,.02,0,.09,0,.19-.02.28-.05.03,0,.06-.03.09-.04.07-.03.15-.07.22-.12.04-.02.07-.05.11-.08.08-.06.15-.13.23-.21.04-.04.07-.07.11-.11.11-.13.23-.27.35-.45.16-.23.33-.46.52-.69.05-.06.1-.12.15-.18.18-.22.38-.43.59-.64.02-.02.04-.04.06-.06.23-.23.48-.45.74-.66.07-.05.13-.11.2-.16.24-.19.48-.36.74-.53.04-.03.08-.06.13-.09.3-.19.61-.36.93-.52.08-.04.16-.07.24-.11.28-.13.57-.24.87-.34.07-.02.13-.05.2-.07.35-.11.72-.2,1.1-.26.09-.02.18-.02.27-.04.32-.04.65-.07.98-.08.06,0,.12-.01.18-.01.03,0,.07,0,.11,0,.18,0,.37.02.56.03.14.01.28.02.43.03.2.03.41.07.61.11.14.03.27.05.41.08.23.06.46.13.7.21.12.04.24.07.36.11.36.13.72.28,1.09.46.38.18.72.36,1.04.52.15.08.27.14.41.21.17.09.35.18.51.26.25.13.47.24.68.36.09.05.17.09.26.13.14.07.28.14.41.2.09.04.17.08.25.12.11.05.22.1.33.15.08.03.15.06.23.09.1.04.19.07.29.1.07.02.14.05.21.07.09.03.18.05.26.06.07.01.14.03.2.04.09.01.17.02.26.02.04,0,.09.01.13.01.03,0,.05,0,.08,0,.06,0,.12,0,.19-.01.08,0,.17-.02.26-.03.07-.01.13-.02.2-.04.09-.02.18-.04.28-.07.07-.02.15-.04.23-.07.1-.03.21-.07.31-.11.08-.03.16-.06.25-.09.12-.05.24-.1.37-.15.09-.04.18-.07.27-.11.14-.06.3-.13.46-.2.09-.04.18-.08.28-.13.19-.09.41-.19.62-.29.01,0,.02,0,.03-.01.07-.03.13-.06.2-.09.3-.14.62-.3.97-.46.15-.07.29-.12.42-.16.04-.01.07-.02.11-.03.07-.02.14-.02.21-.03.02,0,.05,0,.07,0,.02,0,.04,0,.05,0,0,0,0,0,.02,0,.12,0,.21.02.3.06.02,0,.03.02.05.03.08.04.14.1.18.17,0,0,0,.02,0,.02.04.07.05.15.06.25,0,.02,0,.03,0,.05,0,.1-.03.21-.07.32,0,.02-.02.05-.03.07-.05.12-.12.25-.21.38,0,0-.01.02-.02.02-.09.13-.21.26-.34.39-.03.03-.05.05-.08.08-.14.13-.31.27-.5.4-.04.03-.08.05-.12.08-.06.04-.14.08-.21.12-.15.1-.3.19-.48.28-.34.17-.67.31-1,.44-.1.04-.19.07-.29.1-.25.09-.5.16-.75.23-.09.02-.17.05-.26.07-.32.07-.64.13-.96.17-.05,0-.1,0-.15.01-.27.03-.54.04-.8.05-.04,0-.09,0-.13,0-.05,0-.11,0-.16,0-.23,0-.45-.02-.67-.03-.08,0-.16-.01-.24-.02-.3-.03-.59-.08-.88-.13-.05-.01-.1-.02-.15-.03-.24-.05-.48-.11-.72-.17-.09-.02-.18-.05-.27-.08-.21-.06-.42-.13-.62-.2-.08-.03-.16-.05-.24-.08-.28-.1-.55-.21-.82-.32-.03-.01-.06-.03-.09-.04-.24-.1-.49-.21-.72-.32-.08-.04-.17-.08-.25-.12-.19-.09-.38-.19-.57-.29-.08-.04-.15-.08-.23-.12-.25-.13-.51-.27-.75-.4-.22-.12-.42-.22-.63-.3-.07-.03-.13-.05-.19-.07-.14-.05-.28-.1-.42-.14-.07-.02-.14-.04-.21-.06-.13-.03-.26-.06-.39-.08-.06-.01-.13-.02-.19-.03-.15-.02-.3-.03-.45-.03-.03,0-.06,0-.09,0-.23,0-.44.02-.66.06-.05,0-.09.02-.14.02-.21.04-.41.1-.6.17-.03.01-.06.03-.1.04-.18.07-.36.15-.53.24-.03.01-.06.03-.08.04-.18.1-.36.22-.54.34-.04.03-.08.06-.12.08-.17.13-.34.26-.51.4-.02.02-.04.04-.06.06-.15.13-.3.27-.45.42-.03.03-.06.06-.09.09-.15.15-.31.31-.46.47-.04.04-.08.08-.11.12-.14.15-.28.31-.42.47-.03.04-.07.08-.1.11-.13.15-.26.29-.38.44-.16.19-.32.37-.48.55-.02.02-.04.05-.06.07-.14.15-.28.3-.41.45-.01.01-.02.03-.04.04-.14.14-.28.28-.41.41-.03.03-.06.05-.09.08-.14.12-.27.24-.41.34-.02.01-.04.03-.06.04-.13.09-.26.17-.39.25-.02.01-.04.03-.06.04-.14.07-.28.13-.42.17-.03,0-.06.02-.09.02-.14.04-.29.06-.43.06,0,0,0,0,0,0-.09,0-.19,0-.28-.02.13.25.27.5.42.74.05.08.1.15.16.22.11.16.23.32.35.48.07.08.14.16.2.24.12.14.25.28.38.42.08.08.15.16.23.23.15.14.3.28.46.41.07.06.14.13.22.19.23.19.47.37.73.54,0,0,0,0,.01,0,.26.17.53.34.81.49.09.05.18.1.27.14.19.1.39.21.6.3.11.05.22.1.33.15.2.09.4.17.6.25.12.04.23.09.35.13.22.08.44.15.67.22.11.03.21.07.32.1.32.09.65.18.99.25.01,0,.02,0,.03,0,.35.08.7.14,1.06.2.11.02.23.03.35.05.25.03.5.06.76.09.14.01.28.02.41.03.24.02.49.03.74.04.14,0,.28,0,.43.01.08,0,.16,0,.24,0,.09,0,.19-.01.28-.01.37,0,.74-.02,1.12-.05.15-.01.3-.02.46-.03.51-.05,1.03-.11,1.55-.19,3.51-.58,6.58-1.99,8.85-3.86.65-.53,1.23-1.11,1.74-1.71.25-.3.49-.61.71-.92.11-.16.2-.33.3-.49.37-.6.66-1.22.88-1.85.07-.21.15-.41.2-.62.27-1.03.33-2.08.15-3.13,0,0,0,0,0,0Z"/>
  <path class="cls-1" d="M170,53.21c-.05-.33-.14-.65-.23-.96-.03-.1-.07-.2-.11-.3-.07-.21-.15-.41-.25-.62-.05-.11-.11-.22-.17-.33-.09-.18-.19-.36-.3-.54-.07-.11-.14-.22-.21-.33-.12-.17-.25-.34-.38-.5-.08-.1-.16-.2-.24-.29-.15-.17-.32-.34-.48-.5-.08-.08-.15-.16-.23-.23-.25-.23-.52-.46-.81-.67-.02-.02-.05-.03-.07-.05-.27-.19-.54-.38-.83-.55-.11-.06-.22-.12-.33-.18-.21-.12-.43-.24-.66-.35-.13-.06-.27-.12-.4-.19-.22-.1-.44-.19-.67-.28-.14-.06-.29-.11-.43-.16-.23-.08-.47-.16-.71-.24-.15-.04-.29-.09-.44-.13-.27-.07-.55-.14-.83-.2-.13-.03-.25-.06-.38-.09-.41-.08-.83-.15-1.25-.2-.05,0-.1,0-.15-.01-.38-.04-.76-.08-1.15-.1-.15,0-.3,0-.45-.01-.21,0-.43-.02-.64-.02-.07,0-.13,0-.2,0-.35,0-.71.02-1.07.04-.17.01-.35.02-.52.03-.53.05-1.07.11-1.62.2-3.89.65-7.23,2.3-9.55,4.48-2.27,2.13-3.54,4.75-3.36,7.41.08.07.17.12.26.16.02.01.05.02.07.03.09.03.18.05.28.06,0,0,.01,0,.02,0,0,0,0,0,0,0,.09,0,.19-.02.28-.05.03,0,.06-.03.09-.04.07-.03.15-.07.22-.12.04-.02.07-.05.11-.08.08-.06.15-.13.23-.21.04-.04.07-.07.11-.11.11-.13.23-.27.35-.45.16-.23.33-.46.52-.69.05-.06.1-.12.15-.18.18-.22.38-.43.59-.64.02-.02.04-.04.06-.06.23-.23.48-.45.74-.66.07-.05.13-.11.2-.16.05-.04.11-.08.17-.12.19-.14.37-.28.57-.41.04-.03.08-.06.13-.09.3-.19.61-.36.93-.51.08-.04.16-.07.24-.11.28-.13.57-.24.87-.34.07-.02.13-.05.2-.07.35-.11.72-.2,1.1-.26.09-.02.18-.02.27-.04.32-.04.65-.07.98-.08.06,0,.12-.01.18-.01.03,0,.07,0,.11,0,.18,0,.37.02.56.03.14.01.28.02.43.03.2.03.4.07.61.11.14.03.28.05.42.08.23.06.46.13.69.21.12.04.24.07.37.11.36.13.72.28,1.09.46.38.18.72.36,1.04.52.14.07.26.13.39.2.18.1.38.19.55.28.24.13.46.24.67.35.09.05.18.09.27.14.14.07.27.14.4.2.09.04.17.08.25.12.11.05.22.1.33.15.08.03.15.06.23.09.1.04.19.07.29.1.07.02.14.05.21.07.09.03.18.05.27.06.07.01.14.03.2.04.09.01.17.02.26.02.04,0,.09.01.13.01.03,0,.05,0,.08,0,.06,0,.13,0,.19-.01.08,0,.17-.02.26-.03.07-.01.14-.02.2-.04.09-.02.18-.04.28-.07.07-.02.15-.04.23-.07.1-.03.21-.07.31-.11.08-.03.16-.06.25-.09.12-.04.24-.1.37-.15.09-.04.18-.07.27-.11.14-.06.3-.13.45-.2.09-.04.18-.08.28-.13.19-.09.41-.19.62-.29.08-.04.15-.07.23-.11.3-.14.62-.3.97-.46.15-.07.29-.12.42-.16.04-.01.07-.02.11-.03.1-.02.19-.04.28-.04.02,0,.04,0,.05,0,0,0,0,0,.02,0,.12,0,.21.02.3.06.02,0,.03.02.05.03.08.04.14.1.18.17,0,0,0,.02,0,.02.04.07.05.15.06.25,0,.02,0,.03,0,.05,0,.1-.03.21-.07.32,0,.02-.02.05-.03.07-.05.12-.12.25-.21.38,0,0-.01.02-.02.02-.09.13-.21.26-.34.39-.03.03-.05.05-.08.08-.14.13-.31.27-.5.4-.04.03-.08.05-.12.08-.21.14-.43.28-.68.41-.34.17-.67.31-1,.44-.1.04-.19.07-.29.1-.25.09-.5.16-.75.23-.09.02-.17.05-.26.07-.32.07-.64.13-.96.17-.05,0-.1,0-.15.01-.27.03-.54.04-.8.05-.04,0-.09,0-.13,0-.05,0-.11,0-.16,0-.23,0-.45-.02-.67-.03-.08,0-.16-.01-.24-.02-.3-.03-.59-.08-.88-.13-.05,0-.1-.02-.15-.03-.24-.05-.48-.11-.72-.17-.09-.02-.18-.05-.27-.08-.21-.06-.42-.13-.62-.2-.08-.03-.16-.05-.24-.08-.28-.1-.55-.21-.82-.32-.03-.01-.06-.03-.09-.04-.24-.1-.48-.21-.72-.32-.08-.04-.17-.08-.25-.12-.19-.09-.39-.19-.58-.29-.08-.04-.15-.08-.23-.12-.25-.13-.51-.27-.76-.4-.22-.12-.42-.22-.63-.3-.07-.03-.13-.05-.19-.07-.14-.05-.28-.1-.42-.14-.07-.02-.14-.04-.21-.06-.13-.03-.26-.06-.39-.08-.06-.01-.13-.02-.19-.03-.15-.02-.3-.03-.45-.03-.03,0-.06,0-.08,0,0,0,0,0-.01,0-.23,0-.44.02-.66.06-.05,0-.09.02-.14.02-.21.04-.41.1-.6.17-.03.01-.06.03-.1.04-.18.07-.36.15-.53.24-.03.01-.06.03-.08.04-.18.1-.36.22-.54.34-.04.03-.08.06-.12.08-.17.13-.34.26-.51.4-.02.02-.04.04-.06.06-.15.13-.3.27-.45.42-.03.03-.06.06-.09.09-.16.15-.31.31-.46.47-.04.04-.07.08-.11.12-.14.16-.29.32-.43.48-.03.03-.05.06-.08.09-.13.15-.26.3-.39.44-.05.06-.11.12-.16.18-.11.13-.22.25-.33.38-.02.03-.05.05-.07.08-.14.15-.28.31-.41.45-.01.01-.02.02-.03.03-.14.14-.28.28-.41.41-.03.03-.06.05-.08.08-.14.12-.27.24-.41.34-.02.01-.04.03-.06.04-.13.09-.26.17-.39.25-.02.01-.04.03-.06.04-.14.07-.28.13-.42.17-.03,0-.06.02-.09.02-.14.04-.29.06-.43.06,0,0,0,0,0,0-.09,0-.19,0-.28-.02.13.25.27.5.42.74.05.08.1.15.16.22.11.16.23.32.35.47.07.08.14.16.21.25.07.08.14.17.21.25.05.06.12.11.17.17.08.08.15.16.23.23.15.14.3.28.46.41.07.06.14.13.22.19.23.19.47.37.73.54,0,0,0,0,.01,0,.26.17.53.34.81.49.09.05.18.1.27.15.19.1.39.21.59.3.11.05.22.1.34.15.19.09.39.17.6.25.12.05.23.09.35.13.22.08.44.15.66.22.11.03.21.07.32.1.32.09.65.18.98.25.01,0,.03,0,.04.01.35.08.7.14,1.06.2.11.02.23.03.35.05.25.03.5.06.76.09.14.01.28.02.42.03.24.02.49.03.73.04.14,0,.29,0,.43.01.08,0,.16,0,.24,0,.09,0,.19-.01.28-.01.37,0,.74-.02,1.12-.05.15-.01.3-.02.46-.03.51-.05,1.03-.11,1.55-.19,8.02-1.33,13.76-6.97,12.83-12.59Z"/>
</svg>