<?xml version="1.0" encoding="UTF-8"?>
<svg id="Layer_1" data-name="Layer 1" xmlns="http://www.w3.org/2000/svg" viewBox="0 0 67.76 62.85">
  <defs>
    <style>
      .cls-1 {
        fill: #694733;
      }
    </style>
  </defs>
  <path class="cls-1" d="M57.2,53.96c-8.66,1.19-22.9-1.69-27.38-17.45-4.48-15.76-1.64-14.42-17.06-20.84-5.11-2.13-1.6-6.05,5.8-3.19,11.78,4.55,15.4,15.04,17.66,24.68,4.07,17.37,25.41,5.72,30.06,12.98,4.59-11.62-1.65-28.08-15.82-39.42C34.13-2.33,13.48-3.65,4.33,7.78c-9.15,11.43-3.34,31.29,12.98,44.35s35.25,14.24,44.91,4.3c-.09-1.66-1.23-2.99-5.02-2.47Z"/>
</svg>