<?xml version="1.0" encoding="UTF-8"?>
<svg id="Layer_1" data-name="Layer 1" xmlns="http://www.w3.org/2000/svg" viewBox="0 0 108.95 105.27">
  <defs>
    <style>
      .cls-1 {
        fill: #22100e;
      }
    </style>
  </defs>
  <path class="cls-1" d="M107.19,95.03l-23.42-23.42c5.01-7.35,7.94-16.21,7.94-25.76C91.71,20.57,71.14,0,45.86,0S0,20.57,0,45.86s20.57,45.86,45.86,45.86c11.42,0,21.87-4.21,29.91-11.14l22.94,22.94c1.17,1.17,2.71,1.76,4.24,1.76s3.07-.59,4.24-1.76c2.34-2.34,2.34-6.14,0-8.48ZM45.86,79.71c-18.67,0-33.86-15.19-33.86-33.86S27.19,12,45.86,12s33.86,15.19,33.86,33.86-15.19,33.86-33.86,33.86Z"/>
</svg>