<?xml version="1.0" encoding="UTF-8"?>
<svg id="Layer_1" data-name="Layer 1" xmlns="http://www.w3.org/2000/svg" viewBox="0 0 121.4 101.19">
  <defs>
    <style>
      .cls-1 {
        fill: #694733;
      }
    </style>
  </defs>
  <path class="cls-1" d="M58.53,21.91c15.77,4.46,13.13,6.17,26.69-3.58,4.5-3.23,5.98,1.81-.33,6.61-10.06,7.63-20.88,5.21-30.28,2.07-8.17-2.73-12.69,1.52-16.15,6.66,6.3,3.46,12.23,8.61,17.04,15.05,1.34,1.79,2.55,3.63,3.64,5.5,2.32-3.5,5.1-6.82,8.31-9.85,8.39-7.93,18.49-12.89,28.25-13.97,2.03-5.04,2.39-10.26.66-15.1C91.42,1.51,71.47-3.97,51.79,3.07c-14.29,5.11-24.49,15.4-27.13,25.94,2.56.32,5.13.94,7.69,1.87,4.89-6.58,13.7-12.49,26.18-8.96Z"/>
  <path class="cls-1" d="M117.08,41.91c-1.66-.14-3.13.81-3.14,4.64-.02,8.74-4.83,22.45-21.05,24.72-16.23,2.27-14.5-.36-22.99,14.02-2.81,4.77-6.21.75-2.36-6.18,6.13-11.04,17.01-13.18,26.88-14.09,17.76-1.63,9.16-24.38,17-27.99-7.93-4.48-19.19-3.61-29.82,2.02-.03.02-.06.03-.09.05-.44.23-.88.48-1.31.72-.08.05-.16.09-.24.14-.39.22-.77.45-1.15.69-.11.07-.23.14-.34.21-.35.22-.7.45-1.05.68-.14.09-.27.18-.41.27-.32.22-.65.44-.97.67-.15.11-.3.21-.45.32-.31.22-.61.45-.91.68-.16.12-.32.24-.47.36-.3.23-.6.47-.9.72-.15.13-.31.25-.46.38-.32.26-.63.53-.94.8-.13.11-.26.22-.39.34-.44.39-.87.79-1.31,1.19-.57.54-1.12,1.09-1.66,1.65-.13.14-.27.28-.4.42-.44.46-.86.92-1.28,1.39-.09.11-.19.21-.28.32-5.27,6.05-8.76,12.83-10.28,19.36,0,.01,0,.03,0,.04-.14.62-.27,1.23-.37,1.84,0,0,0,.02,0,.03-.32,1.85-.48,3.67-.47,5.45,0,.04,0,.08,0,.12,0,.53.03,1.06.06,1.58,0,.07,0,.14.01.21.04.53.1,1.06.17,1.58,0,.03,0,.05.01.08.16,1.12.4,2.21.71,3.27.01.04.03.08.04.12.14.46.3.92.47,1.37.03.09.07.18.1.27.16.42.34.83.53,1.23.04.08.07.15.11.23.47.96,1.02,1.88,1.64,2.76h0c.49.69,1.03,1.35,1.62,1.97,10.06,10.64,30.53,7.62,45.71-6.75,14.55-13.77,18.96-32.95,10.44-43.89Z"/>
  <path class="cls-1" d="M54.18,89.83c-2.76-5.45-3.49-12.1-2.01-19.32.85-4.17,2.41-8.33,4.57-12.32-.39-.74-.81-1.48-1.24-2.22,0,0,0,0,0,0-.07-.11-.14-.22-.21-.33-.37-.62-.75-1.23-1.15-1.84-.1-.15-.2-.31-.3-.46-.5-.75-1.01-1.49-1.56-2.23-.52-.69-1.05-1.36-1.59-2.01-.13-.16-.26-.31-.39-.47-1.12-1.33-2.28-2.58-3.48-3.76-.07-.06-.13-.13-.2-.19-12.22-11.83-28.15-15.56-38.23-8.03-11.73,8.76-11.11,29.44,1.4,46.19,11.99,16.05,30.53,22.65,42.38,15.46.33-1.63-.44-3.2-4.24-3.66-8.68-1.03-21.74-7.4-22.11-23.78-.37-16.38,2.04-14.36-11.26-24.46-4.41-3.35-.03-6.25,6.41-1.62,10.25,7.37,11.12,18.43,10.87,28.33-.35,14.43,15.03,13.32,22.32,16.72Z"/>
</svg>