<?xml version="1.0" encoding="UTF-8"?>
<svg id="Layer_1" data-name="Layer 1" xmlns="http://www.w3.org/2000/svg" viewBox="0 0 115.65 115.65">
  <defs>
    <style>
      .cls-1 {
        fill: #22100e;
      }
    </style>
  </defs>
  <path class="cls-1" d="M57.82,0C25.94,0,0,25.94,0,57.82s25.94,57.82,57.82,57.82,57.82-25.94,57.82-57.82S89.71,0,57.82,0ZM57.82,105.65c-26.37,0-47.82-21.45-47.82-47.82S31.45,10,57.82,10s47.82,21.45,47.82,47.82-21.45,47.82-47.82,47.82Z"/>
  <path class="cls-1" d="M64.9,57.82l16.11-16.11c1.95-1.95,1.95-5.12,0-7.07-1.95-1.95-5.12-1.95-7.07,0l-16.11,16.11-16.31-16.31c-1.95-1.95-5.12-1.95-7.07,0-1.95,1.95-1.95,5.12,0,7.07l16.31,16.31-16.51,16.51c-1.95,1.95-1.95,5.12,0,7.07.98.98,2.26,1.46,3.54,1.46s2.56-.49,3.54-1.46l16.51-16.51,16.31,16.31c.98.98,2.26,1.46,3.54,1.46s2.56-.49,3.54-1.46c1.95-1.95,1.95-5.12,0-7.07l-16.31-16.31Z"/>
</svg>